<svg width="222" height="74" viewBox="0 0 222 74" fill="none" xmlns="http://www.w3.org/2000/svg">
<path d="M82.2205 0H80.1198V60.5973H82.2205V0Z" fill="#A63337"/>
<path d="M86.5662 1.87085H84.4655V58.723H86.5662V1.87085Z" fill="#2D2D60"/>
<path d="M222 5.2417H88.5745V56.1519H222V5.2417Z" fill="white"/>
<path d="M99.2407 50.1877H99.6956V54.1885H99.2407V52.4178H96.049V54.1885H95.6014V50.1877H96.049V51.9585H99.2407V50.1877Z" fill="black"/>
<path d="M103.579 50.1878H106.242C106.418 50.1888 106.587 50.2594 106.712 50.3842C106.836 50.509 106.907 50.6781 106.908 50.8546V53.5218C106.909 53.61 106.892 53.6976 106.859 53.7791C106.825 53.8607 106.775 53.9345 106.712 53.996C106.651 54.0587 106.578 54.1081 106.497 54.1412C106.416 54.1744 106.329 54.1905 106.242 54.1886H103.579C103.491 54.1896 103.404 54.173 103.323 54.1399C103.242 54.1067 103.168 54.0576 103.106 53.9955C103.044 53.9334 102.995 53.8595 102.962 53.7781C102.929 53.6968 102.912 53.6096 102.913 53.5218V50.8546C102.911 50.7672 102.928 50.6803 102.961 50.5993C102.994 50.5184 103.043 50.4451 103.106 50.3841C103.167 50.3209 103.241 50.2708 103.322 50.2371C103.404 50.2033 103.491 50.1865 103.579 50.1878ZM103.579 53.7404H106.242C106.271 53.7408 106.299 53.735 106.325 53.7235C106.351 53.712 106.375 53.695 106.394 53.6737C106.414 53.6544 106.431 53.6309 106.442 53.6047C106.453 53.5784 106.458 53.5502 106.456 53.5218V50.8546C106.456 50.7976 106.434 50.743 106.394 50.7027C106.353 50.6624 106.299 50.6398 106.242 50.6398H103.579C103.551 50.6386 103.523 50.6437 103.496 50.6546C103.47 50.6655 103.447 50.6819 103.427 50.7027C103.406 50.7218 103.389 50.7452 103.378 50.7714C103.366 50.7976 103.36 50.826 103.361 50.8546V53.5218C103.364 53.5789 103.387 53.6329 103.428 53.6734C103.468 53.7138 103.522 53.7377 103.579 53.7404Z" fill="black"/>
<path d="M113.38 53.5217V50.1877H113.831V53.5217C113.832 53.61 113.816 53.6976 113.782 53.7791C113.748 53.8606 113.698 53.9344 113.635 53.9959C113.574 54.0586 113.501 54.108 113.42 54.1412C113.339 54.1743 113.253 54.1904 113.165 54.1885H110.503C110.415 54.1895 110.328 54.173 110.247 54.1398C110.165 54.1066 110.092 54.0576 110.03 53.9955C109.968 53.9333 109.919 53.8594 109.885 53.7781C109.852 53.6967 109.836 53.6096 109.837 53.5217V53.2069H110.284V53.5217C110.287 53.5788 110.311 53.6329 110.351 53.6733C110.392 53.7137 110.446 53.7376 110.503 53.7403H113.173C113.201 53.7407 113.23 53.735 113.256 53.7235C113.282 53.712 113.305 53.695 113.324 53.6736C113.344 53.6537 113.359 53.6299 113.369 53.6037C113.378 53.5775 113.382 53.5496 113.38 53.5217Z" fill="black"/>
<path d="M117.737 50.1878H120.4C120.576 50.1888 120.745 50.2594 120.869 50.3842C120.994 50.509 121.064 50.6781 121.065 50.8546V54.1886H120.614V52.7291H117.519V54.1886H117.071V50.8546C117.069 50.7672 117.085 50.6803 117.118 50.5993C117.151 50.5184 117.201 50.4451 117.263 50.3841C117.325 50.3209 117.398 50.2708 117.48 50.2371C117.561 50.2033 117.649 50.1865 117.737 50.1878ZM117.519 52.2771H120.614V50.8546C120.614 50.7976 120.592 50.743 120.551 50.7027C120.511 50.6624 120.457 50.6398 120.4 50.6398H117.737C117.708 50.6386 117.68 50.6437 117.654 50.6546C117.628 50.6655 117.604 50.6819 117.585 50.7027C117.564 50.7218 117.547 50.7452 117.535 50.7714C117.524 50.7976 117.518 50.826 117.519 50.8546V52.2771Z" fill="black"/>
<path d="M124.309 54.1886V50.1841H124.76V53.7404H128.303V54.1886H124.309Z" fill="black"/>
<path d="M133.618 50.1877H134.147L132.298 52.6845V54.1885H131.85V52.6845L130.001 50.1877H130.556L132.102 52.1437L133.618 50.1877Z" fill="black"/>
<path d="M140.541 50.1877H141.118L139.45 52.1881L141.126 54.1885H140.541L139.062 52.4178H137.775V54.1885H137.324V50.1877H137.779V51.9585H139.062L140.541 50.1877Z" fill="black"/>
<path d="M151.722 53.5217V50.1877H152.169V53.5217C152.17 53.6096 152.154 53.6967 152.121 53.7781C152.088 53.8594 152.039 53.9333 151.977 53.9955C151.915 54.0576 151.841 54.1066 151.76 54.1398C151.678 54.173 151.591 54.1895 151.504 54.1885H148.841C148.754 54.1904 148.667 54.1743 148.586 54.1412C148.505 54.108 148.432 54.0586 148.371 53.9959C148.308 53.9344 148.258 53.8606 148.224 53.7791C148.191 53.6976 148.174 53.61 148.175 53.5217V53.2069H148.626V53.5217C148.626 53.55 148.632 53.578 148.642 53.6041C148.653 53.6302 148.669 53.6538 148.689 53.6736C148.708 53.6948 148.732 53.7116 148.758 53.7231C148.784 53.7346 148.812 53.7405 148.841 53.7403H151.504C151.533 53.7403 151.561 53.7344 151.588 53.7229C151.615 53.7115 151.639 53.6947 151.659 53.6736C151.679 53.6538 151.695 53.6302 151.706 53.6041C151.717 53.578 151.722 53.55 151.722 53.5217Z" fill="black"/>
<path d="M159.056 50.1877V50.6397H155.86V51.9585H158.427V52.4178H155.86V53.7403H159.056V54.1885H155.409V50.1877H159.056Z" fill="black"/>
<path d="M164.371 52.1659L166.028 50.1877H166.645V54.1885H166.194V50.699L164.371 52.8698L162.544 50.699V54.1885H162.096V50.1877H162.71L164.371 52.1659Z" fill="black"/>
<path d="M173.846 50.8546V51.0176H173.395V50.8546C173.395 50.8264 173.389 50.7985 173.379 50.7724C173.368 50.7463 173.352 50.7226 173.332 50.7027C173.312 50.6827 173.288 50.6669 173.262 50.6561C173.236 50.6453 173.208 50.6398 173.18 50.6398H170.517C170.489 50.6386 170.461 50.6437 170.435 50.6546C170.409 50.6655 170.385 50.6819 170.366 50.7027C170.345 50.7218 170.328 50.7452 170.316 50.7714C170.305 50.7976 170.299 50.826 170.299 50.8546V53.5218C170.302 53.5789 170.326 53.6329 170.366 53.6734C170.406 53.7138 170.46 53.7377 170.517 53.7404H173.18C173.209 53.7408 173.237 53.735 173.263 53.7235C173.29 53.712 173.313 53.695 173.332 53.6737C173.353 53.6544 173.369 53.6309 173.38 53.6047C173.391 53.5784 173.396 53.5502 173.395 53.5218V52.5327H172.407V52.0771H173.846V53.5218C173.847 53.61 173.831 53.6976 173.797 53.7791C173.763 53.8607 173.713 53.9345 173.65 53.996C173.589 54.0587 173.516 54.1081 173.435 54.1412C173.354 54.1744 173.268 54.1905 173.18 54.1886H170.517C170.43 54.1896 170.343 54.173 170.262 54.1399C170.18 54.1067 170.107 54.0576 170.044 53.9955C169.982 53.9334 169.933 53.8595 169.9 53.7781C169.867 53.6968 169.851 53.6096 169.852 53.5218V50.8546C169.85 50.7672 169.866 50.6803 169.899 50.5993C169.932 50.5184 169.981 50.4451 170.044 50.3841C170.105 50.3209 170.179 50.2708 170.261 50.2371C170.342 50.2033 170.429 50.1865 170.517 50.1878H173.18C173.357 50.1888 173.525 50.2594 173.65 50.3842C173.775 50.509 173.845 50.6781 173.846 50.8546Z" fill="black"/>
<path d="M180.44 50.1877H180.969L179.12 52.6845V54.1885H178.673V52.6845L176.823 50.1877H177.341L178.887 52.1437L180.44 50.1877Z" fill="black"/>
<path d="M187.512 50.1877H188.041L186.192 52.6845V54.1885H185.744V52.6845L183.895 50.1877H184.413L185.959 52.1437L187.512 50.1877Z" fill="black"/>
<path d="M194.876 50.1877V50.6397H191.68V51.9585H194.269V52.4178H191.68V53.7403H194.876V54.1885H191.233V50.1877H194.876Z" fill="black"/>
<path d="M197.868 50.1877H201.862V50.6397H200.087V54.1885H199.639V50.6397H197.868V50.1877Z" fill="black"/>
<path d="M204.895 54.1885V50.1877H205.342V54.1885H204.895Z" fill="black"/>
<path d="M107.444 20.4115H95.3833L93.3713 23.953H91.1522L99.9361 8.52026H102.703L111.468 23.9604H109.445L107.444 20.4115ZM106.516 18.8038L101.423 9.78718L96.2968 18.8038H106.516Z" fill="black"/>
<path d="M132.405 42.4419H120.337L118.325 45.9797H116.106L124.901 30.5396H127.667L136.436 45.9797H134.402L132.405 42.4419ZM131.495 40.8342L126.38 31.8176L121.254 40.8342H131.495Z" fill="black"/>
<path d="M178.865 42.4419H166.8L164.789 45.9797H162.569L171.364 30.5396H174.131L182.896 45.9797H180.855L178.865 42.4419ZM177.955 40.8342L172.847 31.8176L167.721 40.8342H177.955Z" fill="black"/>
<path d="M117.219 23.953H115.51V8.52026H118.51L131.04 22.0304V8.52026H132.749V23.953H130.471L117.219 10.1206V23.953Z" fill="black"/>
<path d="M137.324 8.52026H139.89L146.958 16.0736L154.022 8.52026H156.593L147.938 17.5184V23.953H146.011V17.5184L137.324 8.52026Z" fill="black"/>
<path d="M174.09 8.52026H176.982L166.061 16.0699L177.304 23.953H174.412L164.145 16.8738H164.212V23.953H162.285V8.52026H164.212V15.2661H164.16L174.09 8.52026Z" fill="black"/>
<path d="M109.633 30.5396H111.442V45.9574H109.633V38.8968H96.3892V45.9649H94.5844V30.5396H96.3892V37.2853H109.633V30.5396Z" fill="black"/>
<path d="M157.184 33.129V33.7291H155.457V33.129C155.453 32.9085 155.364 32.6981 155.208 32.5425C155.052 32.3869 154.842 32.2983 154.621 32.2955H144.373C144.153 32.2974 143.942 32.3858 143.787 32.5417C143.631 32.6976 143.543 32.9085 143.541 33.129V36.5704C143.539 36.6785 143.559 36.7859 143.601 36.8855C143.643 36.9851 143.706 37.0747 143.785 37.1483C143.862 37.2254 143.954 37.2861 144.055 37.3269C144.156 37.3676 144.264 37.3875 144.373 37.3854H154.614C154.951 37.3839 155.284 37.4492 155.596 37.5774C155.907 37.7057 156.19 37.8944 156.428 38.1327C156.667 38.371 156.855 38.6541 156.984 38.9658C157.112 39.2775 157.178 39.6116 157.177 39.9489V43.3903C157.179 43.7278 157.113 44.0623 156.985 44.3744C156.857 44.6866 156.668 44.9702 156.43 45.2088C156.191 45.4475 155.908 45.6366 155.597 45.765C155.285 45.8935 154.951 45.9589 154.614 45.9575H144.373C144.036 45.9589 143.702 45.8935 143.39 45.765C143.079 45.6366 142.796 45.4475 142.557 45.2088C142.319 44.9702 142.13 44.6866 142.002 44.3744C141.874 44.0623 141.808 43.7278 141.81 43.3903V42.7939H143.541V43.3903C143.541 43.6113 143.629 43.8233 143.785 43.9797C143.941 44.136 144.152 44.2238 144.373 44.2238H154.614C154.835 44.2228 155.046 44.1348 155.203 43.9788C155.359 43.8228 155.448 43.6114 155.45 43.3903V39.9489C155.451 39.8406 155.429 39.7333 155.387 39.6338C155.344 39.5344 155.281 39.4448 155.202 39.371C155.124 39.295 155.032 39.2353 154.931 39.1953C154.83 39.1552 154.723 39.1356 154.614 39.1376H144.373C144.036 39.1391 143.702 39.0737 143.39 38.9452C143.079 38.8167 142.796 38.6276 142.557 38.389C142.319 38.1503 142.13 37.8667 142.002 37.5546C141.874 37.2424 141.808 36.9079 141.81 36.5704V33.129C141.809 32.7917 141.875 32.4577 142.003 32.146C142.132 31.8343 142.32 31.5511 142.559 31.3128C142.797 31.0745 143.08 30.8858 143.391 30.7576C143.703 30.6293 144.036 30.564 144.373 30.5655H154.614C154.951 30.563 155.286 30.6276 155.598 30.7554C155.91 30.8832 156.194 31.0718 156.433 31.3102C156.672 31.5486 156.862 31.832 156.991 32.1442C157.12 32.4564 157.185 32.7911 157.184 33.129Z" fill="black"/>
<path d="M188.155 30.4504H201.17C201.857 30.4504 202.515 30.7236 203.001 31.2099C203.486 31.6962 203.759 32.3558 203.759 33.0436V37.626C203.759 38.3137 203.486 38.9733 203.001 39.4596C202.515 39.9459 201.857 40.2191 201.17 40.2191H190.755C190.473 40.204 190.192 40.1744 189.912 40.1302V46.0573H188.155V30.4504ZM202.014 37.6408V33.0584C202.016 32.9467 201.995 32.8358 201.952 32.7325C201.909 32.6293 201.846 32.5359 201.766 32.4583C201.688 32.3791 201.595 32.3164 201.493 32.2737C201.391 32.2311 201.281 32.2094 201.17 32.2101H190.755C190.645 32.2094 190.535 32.2311 190.433 32.2737C190.33 32.3164 190.238 32.3791 190.16 32.4583C190.08 32.5359 190.016 32.6293 189.974 32.7325C189.931 32.8358 189.91 32.9467 189.912 33.0584V37.6408C189.909 37.7504 189.93 37.8594 189.973 37.9604C190.015 38.0613 190.079 38.1519 190.16 38.2261C190.238 38.3042 190.331 38.3658 190.433 38.4072C190.536 38.4486 190.645 38.4689 190.755 38.4669H201.17C201.281 38.4689 201.39 38.4486 201.492 38.4072C201.595 38.3658 201.688 38.3042 201.766 38.2261C201.846 38.1519 201.91 38.0613 201.953 37.9604C201.996 37.8594 202.016 37.7504 202.014 37.6408Z" fill="black"/>
<path d="M25.046 38.6521L24.2693 40.5932H32.1359L31.3629 38.6521H25.046Z" fill="white"/>
<path d="M23.2153 43.2383L22.4386 45.1794H33.9667L33.1937 43.2383H23.2153Z" fill="white"/>
<path d="M21.3808 47.8208L20.6078 49.7656H35.8011L35.0244 47.8208H21.3808Z" fill="white"/>
<path d="M18.2223 8.33496L0 53.97V55.6889H15.2487L26.1555 28.3834L18.2223 8.33496Z" fill="white"/>
<path d="M42.2549 55.689H40.3724L20.079 4.86768H21.9578L42.2549 55.689Z" fill="white"/>
<path d="M53.5389 60.7493H51.5269L28.3561 2.73022H30.368L53.5389 60.7493Z" fill="#2D3061"/>
<path d="M48.9417 60.2455H46.9408L23.1412 0.655762H25.1458L48.9417 60.2455Z" fill="#A8353A"/>
<path d="M55.292 53.0662L40.4094 15.8032L36.0415 4.86768H34.1627L40.4094 20.5078L53.4132 53.0662L54.4599 55.689H56.3387L55.292 53.0662Z" fill="white"/>
<path d="M75.7741 4.44531V25.105H55.8727V5.24177H40.4094V5.2714L44.6146 15.8031L51.4826 32.9992V33.0399L52.6032 35.8442H52.618L55.8727 43.994V35.8442H75.7741V56.152H77.8785V4.44531H75.7741Z" fill="white"/>
<path d="M29.5877 73.8555C29.3436 73.8555 29.0699 73.811 28.848 73.811C28.6261 73.811 28.3968 73.8555 28.1527 73.8555C28.1157 73.8555 28.1157 73.7221 28.1527 73.7221C28.6187 73.7221 28.7112 73.548 28.5226 72.9071L27.7385 70.2103H26.5143L25.9521 72.4589C25.7228 73.348 25.9262 73.7184 26.5032 73.7184C26.5439 73.7184 26.5439 73.8518 26.5032 73.8518C26.2406 73.8518 26.0705 73.8073 25.7302 73.8073C25.39 73.8073 25.279 73.8518 25.009 73.8518C24.9683 73.8518 24.9683 73.7184 25.009 73.7184C25.3789 73.7184 25.5379 73.4443 25.8153 72.3552L27.1985 66.8726C27.1985 66.8392 27.2762 66.8281 27.2836 66.8726L28.848 72.3478C29.155 73.4591 29.3177 73.7221 29.5877 73.7221C29.6136 73.7184 29.6136 73.8555 29.5877 73.8555ZM27.6941 69.9806L27.1098 67.8987L26.5846 69.9806H27.6941Z" fill="white"/>
<path d="M39.2961 67.106C39.2702 67.106 39.2702 66.9727 39.2961 66.9727C39.4921 66.9727 39.6955 67.006 39.9433 67.006C40.1911 67.006 40.3723 66.9727 40.5462 66.9727C40.5684 66.9727 40.5684 67.106 40.5462 67.106C40.1948 67.106 40.0247 67.4579 40.0247 68.1729V71.3106C40.0247 73.0183 39.4071 74 38.4787 74C37.5504 74 36.8662 72.985 36.8662 71.4069V67.8654C36.8662 67.2394 36.7885 67.1245 36.3077 67.1245C36.2819 67.1245 36.2819 66.9912 36.3077 66.9912C36.5186 66.9912 36.7885 67.0245 37.077 67.0245C37.3655 67.0245 37.6466 66.9912 37.85 66.9912V67.1245C37.3692 67.1245 37.2915 67.2801 37.2915 67.9062V71.0216C37.2915 72.7627 37.7834 73.6777 38.623 73.6777C39.3997 73.6777 39.8657 72.8072 39.8657 71.3402V68.1618C39.8657 67.4579 39.677 67.106 39.2961 67.106Z" fill="white"/>
<path d="M48.4498 73.8333C48.1613 73.8333 47.8839 73.8556 47.6768 73.8556C47.6546 73.8556 47.6546 73.7222 47.6768 73.7222C48.1539 73.7222 48.2464 73.6037 48.2464 72.9813V67.8655C48.2464 67.2394 48.1613 67.1246 47.6805 67.1246C47.662 67.1246 47.662 66.9912 47.6805 66.9912C47.8987 66.9912 48.1613 67.0246 48.4498 67.0246C48.7383 67.0246 49.1044 66.969 49.3374 66.969C50.7354 66.969 51.6526 68.4248 51.6526 70.303C51.6526 72.5034 50.6356 73.9037 49.4336 73.9037C49.1673 73.9 48.7494 73.8333 48.4498 73.8333ZM51.1533 70.5401C51.1533 68.6249 50.4802 67.1172 49.3966 67.1172C48.8677 67.1172 48.6569 67.2172 48.6569 67.8877V72.8442C48.6569 73.4481 48.7826 73.7333 49.3596 73.7333C50.3915 73.7185 51.1459 72.6072 51.1459 70.5401H51.1533Z" fill="white"/>
<path d="M60.5734 73.7185C60.5993 73.7185 60.5993 73.8518 60.5734 73.8518C60.3626 73.8518 60.1074 73.8296 59.793 73.8296C59.4786 73.8296 59.2308 73.8518 59.02 73.8518C58.9941 73.8518 58.9941 73.7185 59.02 73.7185C59.4971 73.7185 59.5822 73.5999 59.5822 72.9776V67.8655C59.5822 67.2394 59.4971 67.1246 59.02 67.1246C58.9941 67.1246 58.9941 66.9912 59.02 66.9912C59.2308 66.9912 59.5045 67.0245 59.793 67.0245C60.0815 67.0245 60.37 66.9912 60.5734 66.9912C60.5993 66.9912 60.5993 67.1246 60.5734 67.1246C60.0926 67.1246 60.0149 67.2802 60.0149 67.9062V72.9776C60.0149 73.6036 60.0889 73.7185 60.5734 73.7185Z" fill="white"/>
<path d="M67.9628 68.7249C67.9628 68.7582 67.8815 68.7582 67.8815 68.7249C67.9148 68.3544 67.9739 67.2431 67.9739 66.743C67.9739 66.6763 68.0516 66.6652 68.0516 66.743C68.0516 66.9615 68.2772 66.9838 68.3993 66.9838C68.7691 67.006 69.224 67.0171 69.7159 67.0171C70.3336 67.0171 70.6479 66.9838 70.9808 66.9838C71.3136 66.9838 71.432 66.9393 71.4801 66.7096C71.4801 66.6541 71.5504 66.6541 71.5504 66.7096C71.5245 67.1505 71.4912 68.3841 71.4912 68.7249C71.4912 68.7693 71.4209 68.7693 71.4135 68.7249C71.3876 67.5913 71.1583 67.1838 70.574 67.1838C69.9896 67.1838 69.9415 67.2505 69.9415 67.8988V72.9776C69.9415 73.6184 70.0266 73.7185 70.574 73.7185C70.5998 73.7185 70.5998 73.8518 70.574 73.8518C70.341 73.8518 70.0636 73.8296 69.7159 73.8296C69.3683 73.8296 69.102 73.8518 68.8653 73.8518V73.7185C69.4089 73.7185 69.5088 73.5999 69.5088 72.9776V67.8654C69.5088 67.206 69.4089 67.1727 68.8727 67.1727C68.3364 67.1727 68.0738 67.6024 67.9628 68.7249Z" fill="white"/>
<path d="M91.5516 73.8556C91.3408 73.8556 91.0597 73.8333 90.7638 73.8333C90.468 73.8333 90.1869 73.8556 89.9798 73.8556C89.9539 73.8556 89.9539 73.7222 89.9798 73.7222C90.4754 73.7222 90.5567 73.6037 90.5567 72.9813V70.3882H88.0233V72.9813C88.0233 73.6222 88.1047 73.7222 88.6003 73.7222C88.6261 73.7222 88.6261 73.8556 88.6003 73.8556C88.3857 73.8556 88.1232 73.8333 87.8088 73.8333C87.4944 73.8333 87.2392 73.8556 87.0284 73.8556V73.7222C87.5129 73.7222 87.6054 73.6037 87.6054 72.9813V67.8655C87.6054 67.2394 87.5203 67.1246 87.0358 67.1246C87.0136 67.1246 87.0136 66.9912 87.0358 66.9912C87.2503 66.9912 87.5129 67.0245 87.8088 67.0245C88.1047 67.0245 88.3894 66.9912 88.6003 66.9912C88.6261 66.9912 88.6261 67.1246 88.6003 67.1246C88.1084 67.1246 88.0233 67.2802 88.0233 67.9062V70.1844H90.5419V67.9062C90.5419 67.2802 90.4606 67.1246 89.965 67.1246C89.9391 67.1246 89.9391 66.9912 89.965 66.9912C90.1721 66.9912 90.4347 67.0245 90.749 67.0245C91.0634 67.0245 91.326 66.9912 91.5368 66.9912C91.5553 66.9912 91.5553 67.1246 91.5368 67.1246C91.0523 67.1246 90.9599 67.2579 90.9599 67.8655V72.9776C90.9599 73.6185 91.0523 73.7185 91.5368 73.7185C91.5701 73.7185 91.5701 73.8556 91.5516 73.8556Z" fill="white"/>
<path d="M102.551 67.106C102.24 67.106 101.9 67.5246 101.645 68.1951L100.768 70.4771V72.9776C100.768 73.6184 100.838 73.7185 101.323 73.7185C101.349 73.7185 101.349 73.8518 101.323 73.8518C101.116 73.8518 100.853 73.8296 100.55 73.8296C100.247 73.8296 99.9879 73.8518 99.777 73.8518C99.7512 73.8518 99.7512 73.7185 99.777 73.7185C100.258 73.7185 100.343 73.5999 100.343 72.9776V70.6549L99.2556 67.9803C99.0041 67.3283 98.808 67.1208 98.5159 67.1208V66.9875C98.6675 66.9875 98.8376 67.0208 98.9819 67.0208C99.3332 67.0208 99.6698 66.9875 99.8991 66.9875C99.9176 66.9875 99.9176 67.1208 99.8991 67.1208C99.5588 67.1208 99.4775 67.2875 99.6217 67.6172L100.679 70.2103L101.471 68.1507C101.726 67.4802 101.652 67.106 101.268 67.106V66.9727C101.508 66.9727 101.682 67.006 102.033 67.006C102.251 67.006 102.347 66.9727 102.54 66.9727C102.577 66.9727 102.577 67.106 102.551 67.106Z" fill="white"/>
<path d="M112.219 67.2505C112.244 67.1727 112.244 67.1616 112.185 67.1616C110.055 67.1616 109.944 67.195 109.689 68.3841C109.689 68.4286 109.604 68.3841 109.615 68.3619L109.874 66.643C109.874 66.6097 109.959 66.643 109.951 66.6652C109.929 66.9283 109.988 66.9727 110.321 66.9727H112.71C112.751 66.9727 112.784 67.0727 112.759 67.1172L110.214 73.5592C110.188 73.637 110.196 73.6481 110.247 73.6481H111.912C112.5 73.6481 112.796 73.2517 112.888 72.3701C112.888 72.3367 112.966 72.3367 112.966 72.3701L112.873 73.7667C112.873 73.8111 112.847 73.8778 112.807 73.8778C111.838 73.8556 110.647 73.8556 109.678 73.8556C109.637 73.8556 109.611 73.7667 109.637 73.7111L112.219 67.2505Z" fill="white"/>
<path d="M125.233 73.8556C125.026 73.8556 124.749 73.8333 124.46 73.8333C124.172 73.8333 123.943 73.8556 123.747 73.8556V73.7222C124.179 73.7222 124.264 73.6037 124.246 72.9813L124.128 67.984L122.648 73.7963C122.644 73.8076 122.636 73.8174 122.627 73.8243C122.617 73.8312 122.605 73.8349 122.593 73.8349C122.581 73.8349 122.569 73.8312 122.559 73.8243C122.549 73.8174 122.541 73.8076 122.537 73.7963L120.925 68.0173L120.866 72.6738C120.866 73.4332 120.999 73.7407 121.424 73.7407C121.443 73.7407 121.443 73.8741 121.424 73.8741C121.228 73.8741 121.028 73.8519 120.788 73.8519C120.548 73.8519 120.355 73.8741 120.185 73.8741C120.159 73.8741 120.159 73.7407 120.185 73.7407C120.555 73.7407 120.71 73.4332 120.714 72.6738L120.769 67.5654C120.636 67.269 120.459 67.1246 120.229 67.1246C120.211 67.1246 120.211 66.9912 120.229 66.9912C120.374 66.9912 120.544 67.0134 120.651 67.0134C120.758 67.0134 120.925 66.9912 120.984 66.9912C121.102 66.9912 121.147 67.0801 121.284 67.5654L122.763 72.7516L124.187 67.2802C124.231 67.1023 124.305 67.0023 124.383 67.0023C124.46 67.0023 124.52 67.0245 124.638 67.0245C124.875 67.0245 125.008 67.0023 125.167 67.0023C125.196 67.0023 125.196 67.1357 125.167 67.1357C124.749 67.1357 124.553 67.2913 124.564 67.8766L124.697 72.9739C124.697 73.6148 124.782 73.7148 125.259 73.7148C125.259 73.7185 125.259 73.8556 125.233 73.8556Z" fill="white"/>
<path d="M136.71 73.8554C136.469 73.8554 136.192 73.811 135.97 73.811C135.748 73.811 135.515 73.8554 135.275 73.8554C135.234 73.8554 135.234 73.7221 135.275 73.7221C135.741 73.7221 135.83 73.5479 135.645 72.9071L134.883 70.2102H133.651L133.089 72.4588C132.86 73.359 133.063 73.7221 133.636 73.7221C133.677 73.7221 133.677 73.8554 133.636 73.8554C133.378 73.8554 133.207 73.811 132.863 73.811C132.52 73.811 132.412 73.8554 132.146 73.8554C132.105 73.8554 132.105 73.7221 132.146 73.7221C132.497 73.7221 132.675 73.4479 132.949 72.3588L134.332 66.8762C134.332 66.8429 134.413 66.8318 134.417 66.8762L135.963 72.3477C136.273 73.459 136.436 73.7221 136.702 73.7221C136.751 73.7184 136.751 73.8554 136.71 73.8554ZM134.816 69.9806L134.254 67.8987L133.729 69.9806H134.816Z" fill="white"/>
<path d="M143.352 68.7249C143.352 68.7582 143.275 68.7582 143.275 68.7249C143.308 68.3544 143.367 67.2431 143.367 66.743C143.367 66.6763 143.445 66.6652 143.445 66.743C143.445 66.9615 143.667 66.9838 143.792 66.9838C144.162 67.006 144.617 67.0171 145.109 67.0171C145.723 67.0171 146.037 66.9838 146.374 66.9838C146.711 66.9838 146.825 66.9393 146.87 66.7096C146.87 66.6541 146.944 66.6541 146.944 66.7096C146.918 67.1505 146.884 68.3841 146.884 68.7249C146.884 68.7693 146.81 68.7693 146.807 68.7249C146.781 67.5913 146.552 67.1838 145.967 67.1838C145.383 67.1838 145.331 67.2505 145.331 67.8988V72.9776C145.331 73.6184 145.416 73.7185 145.967 73.7185C145.993 73.7185 145.993 73.8518 145.967 73.8518C145.73 73.8518 145.457 73.8296 145.109 73.8296C144.761 73.8296 144.491 73.8518 144.258 73.8518C144.236 73.8518 144.236 73.7185 144.258 73.7185C144.802 73.7185 144.898 73.5999 144.898 72.9776V67.8654C144.898 67.206 144.802 67.1727 144.262 67.1727C143.722 67.1727 143.463 67.6024 143.352 68.7249Z" fill="white"/>
<path d="M155.136 72.9183C155.136 73.5147 155.217 73.6259 155.668 73.6259H156.375C156.885 73.6259 157.181 73.0406 157.266 72.1441C157.266 72.1108 157.347 72.1219 157.347 72.1663C157.314 72.5738 157.281 73.2036 157.281 73.6777C157.281 73.7963 157.258 73.8407 157.181 73.8407H154.155C154.133 73.8407 154.133 73.7074 154.155 73.7074C154.633 73.7074 154.71 73.5888 154.71 72.9665V67.8655C154.71 67.2394 154.633 67.1246 154.155 67.1246C154.133 67.1246 154.133 66.9912 154.155 66.9912C154.363 66.9912 154.633 67.0245 154.921 67.0245C155.209 67.0245 155.491 66.9912 155.694 66.9912C155.72 66.9912 155.72 67.1246 155.694 67.1246C155.217 67.1246 155.136 67.269 155.136 67.8951V72.9183Z" fill="white"/>
<path d="M168.738 73.8554C168.494 73.8554 168.221 73.811 167.999 73.811C167.777 73.811 167.548 73.8554 167.303 73.8554C167.263 73.8554 167.263 73.7221 167.303 73.7221C167.769 73.7221 167.862 73.5479 167.673 72.9071L166.911 70.2102H165.691L165.129 72.4588C164.899 73.359 165.103 73.7221 165.68 73.7221C165.717 73.7221 165.717 73.8554 165.68 73.8554C165.417 73.8554 165.247 73.811 164.907 73.811C164.567 73.811 164.452 73.8554 164.186 73.8554C164.145 73.8554 164.145 73.7221 164.186 73.7221C164.556 73.7221 164.715 73.4479 164.992 72.3588L166.375 66.8762C166.375 66.8429 166.453 66.8318 166.46 66.8762L168.006 72.3477C168.313 73.459 168.476 73.7221 168.746 73.7221C168.775 73.7184 168.775 73.8554 168.738 73.8554ZM166.845 69.9806L166.261 67.8987L165.735 69.9806H166.845Z" fill="white"/>
<path d="M179.978 73.8554H179.139C178.917 73.8554 178.281 72.4996 177.437 70.2992C177.319 70.3445 177.194 70.3671 177.067 70.3659C176.968 70.3643 176.87 70.3568 176.772 70.3436V72.9775C176.772 73.6184 176.846 73.7184 177.33 73.7184C177.356 73.7184 177.356 73.8517 177.33 73.8517C177.119 73.8517 176.857 73.8295 176.557 73.8295C176.257 73.8295 175.991 73.8517 175.784 73.8517C175.758 73.8517 175.758 73.7184 175.784 73.7184C176.261 73.7184 176.346 73.5998 176.346 72.9775V67.8654C176.346 67.2393 176.269 67.1245 175.791 67.1245C175.762 67.1245 175.762 66.9911 175.791 66.9911C175.999 66.9911 176.269 67.0244 176.557 67.0244C176.786 67.0244 177.127 66.9578 177.341 66.9578C178.062 66.9578 178.451 67.4875 178.451 68.3469C178.459 68.6653 178.404 68.9821 178.289 69.2791C178.174 69.576 178.002 69.8472 177.781 70.0769C178.891 72.796 179.412 73.7406 179.963 73.7406C180.004 73.7184 180.004 73.8554 179.978 73.8554ZM177.175 70.1102C177.778 70.1102 178.018 69.7398 178.018 68.7026C178.018 67.4912 177.67 67.0948 177.212 67.0948C176.897 67.0948 176.786 67.1615 176.786 67.8876V70.0806C176.915 70.1012 177.045 70.1112 177.175 70.1102Z" fill="white"/>
<path d="M190.3 67.106C189.993 67.106 189.653 67.5246 189.398 68.1951L188.518 70.4771V72.9776C188.518 73.6184 188.592 73.7185 189.076 73.7185C189.102 73.7185 189.102 73.8518 189.076 73.8518C188.865 73.8518 188.603 73.8296 188.303 73.8296C188.004 73.8296 187.741 73.8518 187.53 73.8518C187.504 73.8518 187.504 73.7185 187.53 73.7185C188.007 73.7185 188.092 73.5999 188.092 72.9776V70.6549L187.005 67.9803C186.757 67.3283 186.561 67.1208 186.265 67.1208C186.243 67.1208 186.243 66.9875 186.265 66.9875C186.413 66.9875 186.583 67.0208 186.728 67.0208C187.098 67.0208 187.416 66.9875 187.645 66.9875C187.667 66.9875 187.667 67.1208 187.645 67.1208C187.305 67.1208 187.227 67.2875 187.371 67.6172L188.425 70.2103L189.22 68.1507C189.476 67.4802 189.402 67.106 189.017 67.106C188.995 67.106 188.995 66.9727 189.017 66.9727C189.257 66.9727 189.428 67.006 189.783 67.006C189.997 67.006 190.097 66.9727 190.286 66.9727C190.326 66.9727 190.326 67.106 190.3 67.106Z" fill="white"/>
</svg>
