<svg width="20" height="27" viewBox="0 0 20 27" fill="none" xmlns="http://www.w3.org/2000/svg">
<path fill-rule="evenodd" clip-rule="evenodd" d="M13.476 23.6256C16.3632 19.9439 20 14.5949 20 11.0109C20 5.0678 15.5228 0.25 10 0.25C4.47715 0.25 0 5.0678 0 11.0109C0 14.5949 3.63682 19.9439 6.52401 23.6256C8.03031 25.5464 8.78346 26.5068 10 26.5068C11.2165 26.5068 11.9697 25.5464 13.476 23.6256ZM10 15.25C7.92893 15.25 6.25 13.5711 6.25 11.5C6.25 9.42893 7.92893 7.75 10 7.75C12.0711 7.75 13.75 9.42893 13.75 11.5C13.75 13.5711 12.0711 15.25 10 15.25Z" fill="rgba(8, 7, 7, 0.700)"/>
</svg>
