<svg width="5" height="10" viewBox="0 0 5 10" fill="none" xmlns="http://www.w3.org/2000/svg">
<path d="M4.33333 4.99996C4.3336 4.86366 4.28613 4.73157 4.19916 4.62662L1.2825 1.12662C1.18348 1.0075 1.0412 0.932583 0.886953 0.918362C0.732705 0.90414 0.579124 0.951777 0.459998 1.05079C0.340871 1.1498 0.265957 1.29209 0.251736 1.44634C0.237514 1.60058 0.28515 1.75416 0.384164 1.87329L2.9975 4.99996L0.477499 8.12662C0.429043 8.18629 0.392858 8.25495 0.371023 8.32865C0.349188 8.40234 0.342133 8.47963 0.350264 8.55606C0.358396 8.6325 0.381552 8.70657 0.418403 8.77402C0.455255 8.84148 0.505074 8.90099 0.564998 8.94912C0.624977 9.00255 0.695343 9.043 0.771686 9.06797C0.848029 9.09293 0.928704 9.10186 1.00866 9.09419C1.08861 9.08652 1.16612 9.06243 1.23633 9.02341C1.30654 8.9844 1.36793 8.9313 1.41666 8.86746L4.23416 5.36746C4.30738 5.25949 4.3423 5.1301 4.33333 4.99996Z" fill="white"/>
</svg>
