<svg width="26" height="24" viewBox="0 0 26 24" fill="none" xmlns="http://www.w3.org/2000/svg">
<path d="M0.916528 5.01184C0.5 6.56182 0.5 8.7001 0.5 12C0.5 16.6872 0.5 19.0307 1.69364 20.6737C2.07914 21.2043 2.54575 21.6709 3.07634 22.0564C4.71925 23.25 7.06283 23.25 11.75 23.25H14.25C18.9372 23.25 21.2808 23.25 22.9237 22.0564C23.4543 21.6709 23.9209 21.2043 24.3064 20.6737C25.5 19.0307 25.5 16.6872 25.5 12C25.5 8.68911 25.5 6.54758 25.0793 4.99636L22.4508 7.62483C20.4105 9.66518 18.8115 11.2642 17.3962 12.344C15.9476 13.4493 14.5816 14.0987 12.9998 14.0987C11.418 14.0987 10.0521 13.4493 8.60343 12.344C7.18811 11.2641 5.58914 9.66516 3.5488 7.6248L1.10482 5.18082L0.916528 5.01184Z" fill="rgba(8, 7, 7, 0.700)"/>
<path d="M1.75 3.25L1.88606 3.36259L2.39484 3.81919L4.82391 6.24826C6.92598 8.35033 8.43726 9.85879 9.74077 10.8533C11.0226 11.8314 11.9928 12.2237 12.9998 12.2237C14.0068 12.2237 14.977 11.8314 16.2589 10.8533C17.5624 9.85879 19.0737 8.35033 21.1757 6.24826L24.0606 3.36338L24.2176 3.20724C23.8321 2.67665 23.4543 2.32914 22.9237 1.94364C21.2808 0.75 18.9372 0.75 14.25 0.75H11.75C7.06283 0.75 4.71925 0.75 3.07634 1.94364C2.54575 2.32914 2.1355 2.71941 1.75 3.25Z" fill="rgba(8, 7, 7, 0.700)"/>
</svg>
