<svg width="26" height="26" viewBox="0 0 26 26" fill="none" xmlns="http://www.w3.org/2000/svg">
<path d="M8.13973 1.71881C6.82462 0.510396 4.80318 0.510396 3.48807 1.71881C3.43421 1.7683 3.37671 1.82581 3.30205 1.90049L2.18018 3.02236C1.05129 4.15125 0.577391 5.77865 0.923719 7.33712C2.88868 16.1794 9.79435 23.0851 18.6367 25.0501C20.1952 25.3964 21.8226 24.9225 22.9514 23.7936L24.0732 22.6719C24.1479 22.5971 24.2055 22.5396 24.255 22.4857C25.4634 21.1706 25.4634 19.1492 24.255 17.8341C24.2055 17.7802 24.1479 17.7227 24.0732 17.6479L22.2366 15.8114C20.9615 14.5362 19.0358 14.1716 17.3828 14.8921C16.4364 15.3047 15.3339 15.0959 14.6039 14.3659L11.6079 11.3699C10.8779 10.6399 10.6691 9.53742 11.0817 8.59104C11.8022 6.93796 11.4376 5.0123 10.1624 3.73717L8.32577 1.90051C8.2511 1.82582 8.19359 1.76831 8.13973 1.71881Z" fill="rgba(8, 7, 7, 0.700)"/>
</svg>
